<svg width="26" height="13" viewBox="0 0 26 13" fill="none" xmlns="http://www.w3.org/2000/svg">
<path fill-rule="evenodd" clip-rule="evenodd" d="M7.4188 0.332764C7.06226 0.356024 6.78677 0.480953 6.46828 0.8805L3.76931 4.28734C2.62625 4.54958 0.12439 5.26539 0.12439 6.66924V9.50284C0.12439 9.79997 0.341281 10.0446 0.604595 10.0446H2.44261C2.39655 9.8339 2.37229 9.61523 2.37229 9.39097C2.37229 7.68623 3.77372 6.30414 5.50314 6.30414C7.23219 6.30414 8.63399 7.68623 8.63399 9.39097C8.63399 9.61523 8.60973 9.8339 8.56366 10.0446H16.4617C16.4156 9.8339 16.3914 9.61523 16.3914 9.39097C16.3914 7.68623 17.7932 6.30414 19.5222 6.30414C21.2513 6.30414 22.6527 7.68623 22.6527 9.39097C22.6527 9.61523 22.6284 9.8339 22.5824 10.0446H25.4246C25.6879 10.0446 25.9044 9.83111 25.9044 9.5715V7.09655C25.9044 5.62817 21.3101 4.57359 20.0061 4.28734L16.6276 0.8805C16.2299 0.480953 15.9297 0.356024 15.5678 0.332764H7.4188ZM11.0899 1.58954C10.8255 1.58954 10.6101 1.80226 10.6101 2.06262V3.815C10.6101 4.07573 10.8255 4.28808 11.0899 4.28808H16.7504C17.0149 4.28808 17.0183 4.07573 16.758 3.815L15.0088 2.06262C14.7489 1.80226 14.3212 1.58954 14.0568 1.58954H11.0899ZM10.3366 2.06262C10.3366 1.80226 10.1212 1.58954 9.85711 1.58954H8.17677C7.91269 1.58954 7.52724 1.80226 7.31948 2.06262L5.91957 3.815C5.71181 4.07574 5.75748 4.28808 6.02155 4.28808H9.85711C10.1212 4.28808 10.3366 4.07574 10.3366 3.815V2.06262ZM19.5294 6.72919C21.0203 6.72919 22.2288 7.9207 22.2288 9.39058C22.2288 10.8601 21.0203 12.052 19.5294 12.052C18.0386 12.052 16.8301 10.8601 16.8301 9.39058C16.8301 7.9207 18.0386 6.72919 19.5294 6.72919ZM20.9062 9.39119C20.9062 8.63936 20.2878 8.02972 19.5253 8.02972C18.7627 8.02972 18.1444 8.63936 18.1444 9.39119C18.1444 10.143 18.7627 10.7523 19.5253 10.7523C20.2878 10.7523 20.9062 10.143 20.9062 9.39119ZM5.51029 6.72918C4.01944 6.72918 2.81056 7.92069 2.81056 9.39058C2.81056 10.8601 4.01944 12.052 5.51029 12.052C7.00075 12.052 8.20964 10.8601 8.20964 9.39058C8.20964 7.92069 7.00075 6.72918 5.51029 6.72918ZM4.12582 9.3912C4.12582 8.63937 4.74377 8.02974 5.5067 8.02974C6.26924 8.02974 6.88719 8.63937 6.88719 9.3912C6.88719 10.143 6.26924 10.7523 5.5067 10.7523C4.74377 10.7523 4.12582 10.143 4.12582 9.3912Z" fill="white"/>
</svg>
