<svg width="157" height="32" viewBox="0 0 157 32" fill="none" xmlns="http://www.w3.org/2000/svg">
<path d="M141.9 12.7L142.2 14.7C142.2 14.7 140.5 13.8 138.4 14C137.2 14.1 136.4 14.5 135.7 15V25.1H132.9V12.6L135.7 12.2V13.4C136.2 13 137.2 12.4 138.5 12.3C140 12.3 141.6 12.6 141.9 12.7ZM67.8 24C68.9 23.9 70.8 23.7 70.8 21.9C70.8 21.3 70.4 20.8 69.7 20.4C68.8 19.9 67.6 19.4 67.2 19.2C65.4 18.4 63.4 17.6 63.4 15.7C63.4 13.6 65 12.1 68.8 12.1C70.5 12.1 72.5 12.6 72.5 12.6V14.5C72.5 14.5 70.3 13.4 68.5 13.4C67.2 13.4 66 13.8 66 14.9C66 15.5 66.4 15.9 67.1 16.3C68.1 16.8 69.2 17.2 69.6 17.4C71.5 18.1 73.4 19.1 73.4 21.3C73.4 24.1 70.8 25.2 67.6 25.2C64.9 25.2 63.3 24.7 63.3 24.7V23.6C63.2 23.8 65.9 24.1 67.8 24ZM86.6 14.6C86.6 14.6 84.5 13.5 82.7 13.5C79.3 13.5 78.6 16 78.6 17.5C78.6 19.1 78.7 20.7 79.8 21.9C80.8 23.1 83 24 85 24C85.9 24 86.9 23.7999 86.9 23.7999V24.9C86.9 24.9 85.4 25.4 83.3 25.4C77.6 25.4 75.5 22.5 75.5 18.5C75.5 15.1 77.2 12.3 81.9 12.3C84.7 12.3 86.6 12.8 86.6 12.8V14.6ZM127 16.6C127 15 125.9 13.5 124.2 13.5C121.6 13.5 121.1 15.6 120.9 16.6H127ZM129.8 24.7999C129.8 24.7999 128.3 25.2999 125.7 25.2999C120.9 25.2999 118.1 22.8 118.1 18.4C118.1 14.6 119.9 12.2 124.7 12.2C127.8 12.2 130.2 14 130.2 17.2V17.7H120.9C120.9 19 121.1 20.8 122.2 22C123.3 23.2 125.2 23.9 127.3 23.9C128.3 23.9 129.7 23.5 129.7 23.5L129.8 24.7999ZM103.5 12.8L106.3 12.4L110.9 21.8L115.2 12.4H117.3L111.3 25.2H109.6L103.5 12.8ZM95.7 24C99.1 24 99.4 20.9 99.4 18.8C99.4 16.6 98.9 13.5 95.6 13.5C92.1 13.5 91.9 16.6 91.9 18.8C91.9 20.8 92.5 24 95.7 24ZM88.8 18.8C88.8 14.9 90.8 12.2 95.6 12.2C99.9 12.2 102.4 14.8 102.4 18.8C102.4 22.7999 100.2 25.2999 95.6 25.2999C91.2 25.2999 88.8 22.6 88.8 18.8ZM56.4 8.29995C56.4 7.39995 57.3 6.69995 58.4 6.69995C59.5 6.69995 60.4 7.39995 60.4 8.29995C60.4 9.29995 59.5 9.89995 58.4 9.89995C57.3 9.89995 56.4 9.19995 56.4 8.29995ZM57.1 12.5L59.9 12.1V25H57.1V12.5ZM43.5 6.99995C46.4 6.99995 49.2 7.69995 51.2 9.19995C53.3 10.8 54.5 13.4 54.5 16C54.5 18.6 53.4 21.1999 51.3 22.7999C49.4 24.2999 46.5 25 43.6 25H38.3V6.99995H43.5ZM41.3 8.29995V23.6C43.3 23.6 45.3 23.4 46.6 22.9C49.5 21.5999 50.9 18.9 50.9 16C50.9 13.1 49.5 10.4 46.6 9.09995C45.3 8.49995 43.4 8.29995 41.3 8.29995ZM143.7 12.5L146.4 12.2L150.1 21.4L154.3 12.2H156.4L150.5 25.2999C149.5 27.4 147.8 30.1 144.6 30.1H144.1V28.2C147.3 28.4 148.6 26 148.6 25.1C148.6 24.4 148.2 23.6 148.2 23.6L143.7 12.5Z" fill="#004B8D"/>
<path d="M10.8 8.9C10 9.7 9.2 10.5 8.5 11.3C11 14 13.5 16.6 16.1 19.1C18.7 16.6 21.2 14 23.7 11.3C22.8 10.5 22 9.8 21.2 9C19.4 10.7 17.7 12.3 16 14.1C14.3 12.3 12.5 10.6 10.8 8.9ZM13.2 6.8C14.2 7.6 15.1 8.4 16 9.3C16.9 8.5 17.9 7.6 18.8 6.8C17.9 6 17 5.3 16 4.6C15 5.3 14.1 6 13.2 6.8ZM6.3 13.7C5.7 14.5 5.1 15.2 4.6 16C7.7 20.3 11.6 24.2 16 27.3C20.4 24.2 24.2 20.4 27.3 16C26.8 15.2 26.2 14.5 25.6 13.7C22.7 17.3 19.5 20.6 16 23.7C12.5 20.7 9.3 17.3 6.3 13.7ZM1.9 16C1.9 8.4 8.3 1.9 15.9 1.9C23.5 1.9 29.9 8.4 29.9 16C29.9 23.6 23.5 30.1 15.9 30.1C8.3 30.1 1.9 23.6 1.9 16ZM0 16C0 7.2 7.1 0 15.9 0C24.7 0 31.8 7.2 31.8 16C31.8 24.8 24.7 32 15.9 32C7.1 32 0 24.8 0 16ZM1.1 16C1.1 24.2 7.7 30.9 15.9 30.9C24.1 30.9 30.8 24.2 30.8 16C30.8 7.8 24.2 1.1 16 1.1C7.7 1.1 1.1 7.8 1.1 16Z" fill="#BA8C60"/>
</svg>
