<svg width="48" height="48" viewBox="0 0 48 48" fill="none" xmlns="http://www.w3.org/2000/svg">
<path d="M46.0419 18.7097L43.343 18.0645C42.9574 16.7742 42.4433 15.5484 41.8008 14.3871L43.2787 12C43.6 11.4193 43.6 10.7097 43.1502 10.1935C43.1502 10.129 43.0859 10.0645 43.0217 9.99999L37.8167 4.77418C37.3026 4.25805 36.4673 4.12902 35.8247 4.51611L33.4471 5.99999C32.2904 5.35482 31.0695 4.83869 29.7843 4.4516L29.1417 1.74192C28.9489 1.03224 28.3064 0.516113 27.5352 0.516113H20.2097C19.4386 0.516113 18.796 1.03224 18.6032 1.74192L17.9606 4.4516C16.6755 4.83869 15.4545 5.35482 14.2979 5.99999L11.9203 4.51611C11.2777 4.12902 10.4423 4.25805 9.92826 4.77418L4.72328 9.99999C4.2092 10.5161 4.08069 11.3548 4.46624 12L5.9442 14.3871C5.30161 15.5484 4.78753 16.7742 4.40198 18.0645L1.7031 18.7097C0.996251 18.9032 0.482178 19.5484 0.482178 20.3226V27.6774C0.482178 28.4516 0.996251 29.0968 1.7031 29.2903L4.40198 30C4.78753 31.2903 5.30161 32.5161 5.9442 33.6774L4.46624 36.0645C4.08069 36.7097 4.2092 37.5484 4.72328 38.0645L9.92826 43.2903C10.4423 43.8064 11.2777 43.9355 11.9203 43.5484L14.2979 42.0645C15.4545 42.7097 16.6755 43.2258 17.9606 43.6129L18.6032 46.3871C18.796 47.0968 19.4386 47.5484 20.1455 47.5484H27.471C28.2421 47.5484 28.8847 47.0322 29.0775 46.3226L29.7843 43.6129C31.0695 43.2258 32.2904 42.7097 33.4471 42.0645L35.8247 43.5484C36.4673 43.9355 37.3026 43.8064 37.8167 43.2903L43.0217 38.0645C43.5358 37.5484 43.6643 36.7097 43.2787 36.0645L41.8008 33.6774C42.4433 32.5161 42.8932 31.2903 43.2787 30L45.9776 29.3548C46.6844 29.1613 47.1985 28.5161 47.1985 27.7419V20.3226C47.2628 19.5484 46.7487 18.9032 46.0419 18.7097ZM45.9776 27.6774C45.9776 27.8064 45.8491 28 45.7206 28L42.7004 28.7742C42.4433 28.8387 42.3148 29.0322 42.2506 29.2258C41.865 30.6452 41.2867 32 40.5798 33.2903C40.4513 33.4839 40.4513 33.7419 40.5798 33.9355L42.1863 36.6451C42.2506 36.7742 42.2506 36.9677 42.1221 37.0968L36.9171 42.3226C36.7886 42.4516 36.66 42.4516 36.4673 42.3871L33.7684 40.7742C33.5756 40.6451 33.3186 40.6451 33.1258 40.7742C31.8406 41.4839 30.4912 42.0645 29.0775 42.4516C28.8847 42.5161 28.6919 42.7097 28.6276 42.9032L27.8565 45.9355C27.7923 46.0645 27.6638 46.1935 27.5352 46.1935H20.2097C20.0812 46.1935 19.8884 46.0645 19.8884 46L19.1173 42.9032C19.053 42.6452 18.8603 42.5161 18.6675 42.4516C17.2538 42.0645 15.9044 41.4839 14.6192 40.7742C14.4907 40.7097 14.4264 40.7097 14.2979 40.7097C14.1694 40.7097 14.0408 40.7097 13.9766 40.7742L11.2777 42.3871C11.1492 42.4516 10.9564 42.4516 10.8279 42.3226L5.6229 37.0968C5.49439 36.9677 5.49439 36.8387 5.55864 36.6451L7.22938 33.9355C7.3579 33.7419 7.3579 33.4839 7.22938 33.2903C6.52253 32 5.9442 30.6452 5.55864 29.2258C5.49439 29.0322 5.30161 28.8387 5.10883 28.7742L2.0244 28C1.89588 27.9355 1.76736 27.8064 1.76736 27.6774V20.3226C1.76736 20.1935 1.89588 20 2.0244 20L5.10883 19.2258C5.30161 19.1613 5.49439 18.9677 5.55864 18.7742C5.9442 17.3548 6.52253 16 7.22938 14.7097C7.3579 14.5161 7.3579 14.2581 7.22938 14.0645L5.55864 11.3548C5.49439 11.2258 5.49439 11.0322 5.6229 10.9032L10.8279 5.6774C10.9564 5.54837 11.0849 5.54837 11.2777 5.61289L13.9766 7.22579C14.1694 7.35482 14.4264 7.35482 14.6192 7.22579C15.9044 6.51611 17.2538 5.93547 18.6675 5.54837C18.8603 5.48386 19.053 5.29031 19.1173 5.09676L19.8884 1.99998C19.9527 1.87095 20.0812 1.74192 20.2097 1.74192H27.5352C27.6638 1.74192 27.8565 1.87095 27.8565 1.99998L28.6276 5.09676C28.6919 5.29031 28.8847 5.48386 29.0775 5.54837C30.4912 5.93547 31.8406 6.51611 33.1258 7.22579C33.3186 7.35482 33.5756 7.35482 33.7684 7.22579L36.4673 5.61289C36.5958 5.54837 36.7886 5.54837 36.9171 5.6774L41.9935 10.7742C41.9935 10.8387 42.0578 10.8387 42.0578 10.9032C42.1863 11.0322 42.1863 11.1613 42.1221 11.3548L40.5156 14.0645C40.3871 14.2581 40.3871 14.5161 40.5156 14.7097C41.2224 16 41.8008 17.3548 42.1863 18.7742C42.2506 18.9677 42.4434 19.1613 42.6361 19.2258L45.7206 20C45.8491 20.0645 45.9776 20.1935 45.9776 20.3226V27.6774Z" fill="#114B8A"/>
<path d="M18.9245 21.2257C19.3101 21.2257 19.5671 20.9677 19.5671 20.5806C19.5671 20.1935 19.3101 19.9354 18.9245 19.9354H15.4545C15.069 19.9354 14.812 20.1935 14.812 20.5806V27.4193C14.812 27.8064 15.069 28.0645 15.4545 28.0645H18.9245C19.3101 28.0645 19.5671 27.8064 19.5671 27.4193C19.5671 27.0322 19.3101 26.7741 18.9245 26.7741H16.0971V24.5161H18.796C19.1816 24.5161 19.4386 24.258 19.4386 23.8709C19.4386 23.4838 19.1816 23.2257 18.796 23.2257H16.0971V21.2257H18.9245Z" fill="#114B8A"/>
<path d="M24.9649 23.2257H22.3303V21.2257H25.3505C25.736 21.2257 25.993 20.9677 25.993 20.5806C25.993 20.1935 25.736 19.9354 25.3505 19.9354H21.6234C21.5592 19.9354 21.5592 19.9354 21.4949 19.9354C21.4307 19.9354 21.4306 19.9354 21.3664 19.9354C21.3021 19.9354 21.3021 19.9999 21.2379 19.9999C21.1736 19.9999 21.1736 20.0645 21.1094 20.0645C21.1094 20.0645 21.0451 20.129 21.0451 20.1935C21.0451 20.258 20.9808 20.258 20.9808 20.3225C20.9808 20.387 20.9808 20.387 20.9808 20.4516C20.9808 20.5161 20.9808 20.5161 20.9808 20.5806L21.0451 27.4193C21.0451 27.7419 21.3664 28.0645 21.6877 28.0645C22.0732 28.0645 22.3303 27.7419 22.3303 27.4193L22.266 24.5161H24.9006C25.2862 24.5161 25.5432 24.258 25.5432 23.8709C25.5432 23.4838 25.3505 23.2257 24.9649 23.2257Z" fill="#114B8A"/>
<path d="M29.9771 20.3225C29.8486 20.0645 29.6558 19.9354 29.3987 19.9354C29.1417 19.9354 28.8847 20.0645 28.8204 20.3225L25.8645 27.1612C25.736 27.4838 25.8645 27.8709 26.1858 27.9999C26.5071 28.129 26.8926 27.9999 27.0212 27.6774L27.8565 25.6774H30.8767L31.7121 27.6774C31.8406 27.9354 32.0334 28.0645 32.2904 28.0645C32.3547 28.0645 32.4832 28.0645 32.5474 27.9999C32.8687 27.8709 32.9973 27.4838 32.8687 27.1612L29.9771 20.3225ZM28.4349 24.4516L29.3987 22.1935L30.3626 24.4516H28.4349Z" fill="#114B8A"/>
<path d="M23.8725 8.70972C15.4545 8.70972 8.64307 15.5484 8.64307 24C8.64307 32.4516 15.4545 39.2904 23.8725 39.2904C32.2904 39.2904 39.1019 32.4516 39.1019 24C39.1019 15.5484 32.2904 8.70972 23.8725 8.70972ZM23.8725 38C16.1614 38 9.92825 31.742 9.92825 24C9.92825 16.2581 16.1614 10 23.8725 10C31.5836 10 37.8167 16.2581 37.8167 24C37.8167 31.742 31.5836 38 23.8725 38Z" fill="#114B8A"/>
</svg>
