<svg width="64" height="64" viewBox="0 0 64 64" fill="none" xmlns="http://www.w3.org/2000/svg">
<path d="M39.4839 55.4841C39.0969 55.4841 38.8389 55.2261 38.8389 54.8391C38.8389 54.4521 39.0969 54.1941 39.4839 54.1941H53.0319C53.6769 54.1941 54.1289 53.6781 54.1929 53.0331V11.0331C54.1929 10.7101 54.0639 10.3881 53.8699 10.1941C53.6759 9.93609 53.3539 9.80709 53.0309 9.80709H32.0629C31.4179 9.80709 30.9019 10.3881 30.9019 11.0331V22.5811C30.9019 22.9681 30.6439 23.2261 30.2569 23.2261C29.8699 23.2261 29.6119 22.9681 29.6119 22.5811V11.0331C29.6119 9.67809 30.7089 8.51709 32.0639 8.51709H53.0319C53.6769 8.51709 54.3219 8.77509 54.7739 9.29109C55.2259 9.74309 55.4839 10.3881 55.4839 11.0331V53.0331C55.4839 54.3881 54.4519 55.4851 53.0969 55.4851H39.4839V55.4841Z" fill="#EE7F65"/>
<path d="M42.5809 10.7742C42.5159 10.7742 42.5159 10.7742 42.5809 10.7742L36.9039 10.3872C36.5169 10.3872 36.2589 10.0642 36.3229 9.67716C36.3229 9.29016 36.6459 9.03216 37.0329 9.09616L42.6459 9.48316L48.2589 9.09616C48.6459 9.09616 48.9039 9.35416 48.9689 9.67716C48.9689 10.0642 48.7109 10.3222 48.3879 10.3872L42.5819 10.7742H42.5809Z" fill="#EE7F65"/>
<path d="M42.5809 52.0652C41.6129 52.0652 40.7749 51.2262 40.7749 50.1942C40.7749 49.1622 41.6139 48.3882 42.5809 48.3882C43.5489 48.3882 44.3869 49.2272 44.3869 50.1942C44.3869 51.2912 43.5479 52.0652 42.5809 52.0652ZM42.5809 49.6772C42.3229 49.6772 42.0649 49.9352 42.0649 50.1932C42.0649 50.4512 42.3229 50.7742 42.5809 50.7742C42.8389 50.7742 43.0969 50.5162 43.0969 50.1932C43.0969 49.8702 42.8389 49.6772 42.5809 49.6772Z" fill="#EE7F65"/>
<path d="M23.0319 50.71L32.4509 41.097L30.7089 39.291L23.0319 47.162L15.2899 39.291L13.5479 41.097L23.0319 50.71Z" fill="#EE7F65"/>
<path d="M23.0319 43.4838L28.9029 37.4188L27.1609 35.6768L23.0319 39.8708L18.8379 35.6768L17.0959 37.4188L23.0319 43.4838Z" fill="#EE7F65"/>
<path d="M20.8389 33.8709L23.0329 35.8709L25.1619 33.8709L23.0329 32.1289L20.8389 33.8709Z" fill="#EE7F65"/>
<path d="M32.2579 55.4841H13.8709C10.9029 55.4841 8.51591 53.0971 8.51591 50.1291V31.2901C8.51591 28.3221 10.9029 25.9351 13.8709 25.9351H32.2579C35.2259 25.9351 37.6129 28.3221 37.6129 31.2901V50.1931C37.5479 53.0961 35.1609 55.4831 32.2579 55.4831V55.4841ZM13.8709 27.2261C11.6129 27.2261 9.80692 29.0321 9.80692 31.2901V50.1931C9.80692 52.4511 11.6129 54.2581 13.8709 54.2581H32.2579C34.5159 54.2581 36.3229 52.4521 36.3229 50.1931V31.2901C36.3229 29.0321 34.5169 27.2261 32.2579 27.2261H13.8709Z" fill="#EE7F65"/>
<path d="M32.3229 32.5809C31.6129 32.5809 31.0969 31.9999 31.0969 31.3549C31.0969 30.6449 31.6779 30.1289 32.3229 30.1289C33.0329 30.1289 33.5489 30.7099 33.5489 31.3549C33.5489 31.9999 33.0329 32.5809 32.3229 32.5809ZM32.3229 31.2899C32.3229 31.2899 32.2579 31.2899 32.3229 31.2899C32.2579 31.3539 32.3879 31.3539 32.3229 31.2899C32.3879 31.2899 32.3879 31.2899 32.3229 31.2899Z" fill="#EE7F65"/>
</svg>
