<svg width="48" height="48" viewBox="0 0 48 48" fill="none" xmlns="http://www.w3.org/2000/svg">
<path d="M24.0487 38.7578C23.2747 38.7578 22.452 38.709 21.678 38.5643C17.8073 37.935 14.3715 35.8065 12.0488 32.613C9.726 29.4195 8.8065 25.5 9.43575 21.6293C10.452 15.339 15.339 10.452 21.6293 9.43576C21.8715 9.38701 22.1618 9.58126 22.1618 9.82276C22.2098 10.065 22.0163 10.3553 21.7748 10.3553C15.9683 11.3228 11.3715 15.9195 10.404 21.7748C9.8235 25.404 10.6943 29.0325 12.8235 32.0325C15.0008 35.0325 18.1463 36.9683 21.8235 37.5968C25.4528 38.1773 29.0813 37.3065 32.0813 35.1773C35.0813 33 37.017 29.8545 37.6455 26.1773C38.226 22.548 37.3552 18.9195 35.226 15.9195C33.0487 12.9195 29.9032 10.9838 26.226 10.3553C25.9837 10.3065 25.7903 10.065 25.839 9.82276C25.8878 9.58051 26.1292 9.38701 26.3715 9.43576C30.2423 10.065 33.678 12.1935 36.0008 15.3878C38.3235 18.582 39.243 22.5008 38.6138 26.3715C37.9845 30.2423 35.856 33.678 32.6625 36.0008C30.1462 37.791 27.1463 38.7585 24.0495 38.7585L24.0487 38.7578Z" fill="#116ECB"/>
<path d="M10.0643 21.5325C9.87076 21.5325 9.72526 21.4357 9.62851 21.2902C9.48301 21.048 9.57976 20.7577 9.82201 20.613C13.6928 18.5325 18.7253 17.4195 23.9993 17.4195C29.2733 17.4195 34.3538 18.5325 38.1765 20.613C38.4188 20.7585 38.5155 21.0487 38.37 21.2902C38.2245 21.5317 37.9343 21.6292 37.6928 21.4837C34.0155 19.5 29.1285 18.387 23.9993 18.387C18.87 18.387 14.0318 19.5 10.257 21.4837C10.2083 21.5317 10.1115 21.5317 10.0635 21.5317L10.0643 21.5325Z" fill="#116ECB"/>
<path d="M20.3227 37.9837C20.2747 37.9837 20.2747 37.9837 20.226 37.9837C19.9837 37.935 19.7902 37.6935 19.839 37.4032C20.0325 36.4357 20.0812 35.4675 19.9357 34.452C19.3552 29.565 14.8552 26.1292 9.96824 26.7097C9.72599 26.7585 9.48449 26.5642 9.43574 26.274C9.38699 26.0317 9.58124 25.7902 9.87149 25.7415C15.291 25.0642 20.2747 28.887 20.952 34.3057C21.0975 35.37 21.0487 36.483 20.8065 37.548C20.7585 37.8382 20.5642 37.9837 20.3227 37.9837Z" fill="#116ECB"/>
<path d="M27.4838 37.9837C27.2415 37.9837 27.048 37.8382 27 37.5967C26.8065 36.5325 26.7578 35.4675 26.8545 34.4032C27.5318 28.9837 32.5155 25.113 37.935 25.7902C38.1773 25.839 38.3708 26.0805 38.3708 26.3227C38.322 26.565 38.0805 26.8065 37.8383 26.7585C32.9025 26.1292 28.4513 29.613 27.822 34.5007C27.7253 35.4682 27.7253 36.4365 27.9188 37.3552C27.9675 37.5975 27.822 37.8877 27.5318 37.9357C27.5318 37.9845 27.5318 37.9845 27.483 37.9845L27.4838 37.9837Z" fill="#116ECB"/>
<path d="M24 27.4357C22.113 27.4357 20.5643 25.887 20.5643 24C20.5643 22.113 22.1123 20.5642 24 20.5642C25.8878 20.5642 27.4358 22.1122 27.4358 24C27.4358 25.8877 25.887 27.4357 24 27.4357ZM24 21.4837C22.6455 21.4837 21.5325 22.5967 21.5325 23.9512C21.5325 25.3057 22.6455 26.4187 24 26.4187C25.3545 26.4187 26.4675 25.3057 26.4675 23.9512C26.4675 22.5967 25.3545 21.4837 24 21.4837Z" fill="#116ECB"/>
<path d="M24 41.613C14.274 41.613 6.38699 33.726 6.38699 24C6.38699 14.274 14.274 6.38699 24 6.38699C33.726 6.38699 41.613 14.274 41.613 24C41.613 33.726 33.726 41.613 24 41.613ZM24 7.35449C14.8065 7.35449 7.35449 14.8057 7.35449 24C7.35449 33.1942 14.8057 40.6455 24 40.6455C33.1935 40.6455 40.6455 33.1942 40.6455 24C40.6455 14.8057 33.1942 7.35449 24 7.35449Z" fill="#116ECB"/>
</svg>
