<svg width="48" height="48" viewBox="0 0 48 48" fill="none" xmlns="http://www.w3.org/2000/svg">
<path d="M11.274 31.7423H9.87075C8.4195 31.7423 7.40325 31.4033 6.822 30.7748C6.38625 30.2423 6.38625 29.7105 6.38625 29.565V23.8553C6.38625 23.565 6.57975 23.3715 6.87 23.3715C7.16025 23.3715 7.35375 23.565 7.35375 23.8553V29.565V29.6138C7.35375 29.6138 7.35375 29.856 7.54725 30.1463C7.7895 30.4365 8.418 30.7755 9.82125 30.7755H11.2245C11.5147 30.7755 11.7082 30.969 11.7082 31.2593C11.7082 31.5495 11.5147 31.743 11.2725 31.743L11.274 31.7423Z" fill="#116ECB"/>
<path d="M36.387 31.7422C36.0968 31.7422 35.9032 31.5487 35.9032 31.2585C35.9032 30.9682 36.0968 30.7747 36.387 30.7747H39.774C40.2578 30.7747 40.6935 30.339 40.6935 29.8552V29.7585V27.0007C40.6935 26.952 40.6935 26.952 40.6935 26.904C40.548 26.7105 39.6772 25.743 33.726 24.3877C33.6292 24.3877 33.5805 24.339 33.4838 24.291C33.435 24.2422 29.226 20.3715 22.0162 20.3715H21.4838C21.1935 20.3715 21 20.178 21 19.8877C21 19.5975 21.1935 19.404 21.4838 19.404H22.0162C29.1293 19.404 33.339 22.8877 34.065 23.517C40.9845 25.0657 41.4683 26.2267 41.6138 26.6137C41.7105 26.8072 41.7105 27.0007 41.6625 27.1462V29.8072C41.6625 29.8072 41.6625 29.856 41.6625 29.904C41.6625 30.9202 40.8398 31.791 39.8235 31.791H36.3877L36.387 31.7422ZM40.7423 26.7097C40.7423 26.7585 40.7423 26.7585 40.7423 26.7097C40.7423 26.7585 40.7423 26.7585 40.7423 26.7097Z" fill="#116ECB"/>
<path d="M28.9838 31.7423H18.4838C18.1935 31.7423 18 31.5488 18 31.2585C18 30.9683 18.1935 30.7747 18.4838 30.7747H28.9838C29.274 30.7747 29.4675 30.9683 29.4675 31.2585C29.4675 31.5488 29.2253 31.7423 28.9838 31.7423Z" fill="#116ECB"/>
<path d="M13.6455 33.8707C12.0975 33.8707 10.791 32.613 10.791 31.0162C10.791 29.4675 12.0488 28.1617 13.6455 28.1617C15.1935 28.1617 16.5 29.4195 16.5 31.0162C16.5 31.7902 16.2098 32.4675 15.6773 33.0487C15.1448 33.5325 14.4195 33.8227 13.6448 33.8715L13.6455 33.8707ZM13.6455 29.1292C12.6293 29.1292 11.7585 29.952 11.7585 31.0162C11.7585 32.0325 12.5813 32.9032 13.6455 32.9032C14.6618 32.9032 15.5325 32.0805 15.5325 31.0162C15.5325 29.952 14.7098 29.1292 13.6455 29.1292Z" fill="#116ECB"/>
<path d="M33.774 33.8228C32.2252 33.8228 30.9195 32.565 30.9195 30.9683C30.9195 29.4195 32.1772 28.1138 33.774 28.1138C35.3227 28.1138 36.6285 29.3715 36.6285 30.9683C36.6285 32.565 35.3707 33.8228 33.774 33.8228ZM33.774 29.1293C32.7577 29.1293 31.887 29.952 31.887 31.0163C31.887 32.0325 32.7097 32.9033 33.774 32.9033C34.7902 32.9033 35.661 32.0805 35.661 31.0163C35.661 29.952 34.8382 29.1293 33.774 29.1293Z" fill="#116ECB"/>
<path d="M30 24.8707H20.1772C19.887 24.8707 19.6935 24.6772 19.6935 24.387C19.6935 24.0967 19.887 23.9032 20.1772 23.9032H30C30.2902 23.9032 30.4837 24.0967 30.4837 24.387C30.4837 24.6772 30.2415 24.8707 30 24.8707Z" fill="#116ECB"/>
<path d="M21.9195 24.8707C21.6292 24.8707 21.4357 24.6772 21.4357 24.387V19.887C21.4357 19.5967 21.6292 19.4032 21.9195 19.4032C22.2097 19.4032 22.4032 19.5967 22.4032 19.887V24.387C22.4032 24.6292 22.161 24.8707 21.9195 24.8707Z" fill="#116ECB"/>
<path d="M9.29025 29.0325H6.9675C6.67725 29.0325 6.48375 28.839 6.48375 28.5488C6.48375 28.2585 6.67725 28.065 6.9675 28.065H9.29025C9.5805 28.065 9.774 28.2585 9.774 28.5488C9.774 28.839 9.5805 29.0325 9.29025 29.0325Z" fill="#116ECB"/>
<path d="M41.0325 29.0325H38.7097C38.4195 29.0325 38.226 28.839 38.226 28.5488C38.226 28.2585 38.4195 28.065 38.7097 28.065H41.0325C41.3228 28.065 41.5163 28.2585 41.5163 28.5488C41.5163 28.839 41.3228 29.0325 41.0325 29.0325Z" fill="#116ECB"/>
<path d="M14.1772 23.8545C14.0805 23.8545 13.935 23.8545 13.8382 23.8545C11.4675 23.661 9.6285 21.5805 9.822 19.209C9.822 17.1285 11.2732 15.3382 13.3057 14.9025C13.4512 14.8545 13.6447 14.9025 13.7415 15.048L13.7895 15.096C13.983 15.2895 13.983 15.5797 13.7895 15.7732C13.257 16.257 12.9667 16.9342 12.9667 17.6602C12.9667 18.3862 13.209 19.0635 13.7407 19.5472C14.2245 20.0797 14.9017 20.37 15.6277 20.37C16.3537 20.37 17.031 20.1277 17.5147 19.596C17.5627 19.548 17.6115 19.4992 17.6602 19.4505C17.8057 19.305 17.9992 19.257 18.1927 19.305C18.3862 19.4017 18.483 19.5952 18.483 19.7887C18.3375 22.1115 16.4505 23.853 14.1765 23.853L14.1772 23.8545ZM10.7902 19.2097C10.6447 21.1455 12.048 22.7422 13.9357 22.887C14.8552 22.935 15.726 22.6935 16.4032 22.0642C16.7422 21.774 17.0325 21.387 17.226 21C15.8715 21.6292 14.178 21.387 13.065 20.226C12.3877 19.5487 12.0007 18.6292 12.0487 17.613C12.0487 17.1772 12.1455 16.7422 12.291 16.3065C11.3715 16.9837 10.791 18 10.791 19.2097C10.791 19.1617 10.791 19.1617 10.791 19.2097H10.7902Z" fill="#116ECB"/>
</svg>
