<svg width="48" height="48" viewBox="0 0 48 48" fill="none" xmlns="http://www.w3.org/2000/svg">
<path d="M11.274 31.5488H9.87075C8.4195 31.5488 7.40325 31.2098 6.822 30.5813C6.38625 30.0488 6.38625 29.517 6.38625 29.3715V23.6618C6.38625 23.3715 6.57975 23.178 6.87 23.178C7.16025 23.178 7.35375 23.3715 7.35375 23.6618V29.3715V29.4203C7.35375 29.4203 7.35375 29.6625 7.54725 29.9528C7.7895 30.243 8.418 30.582 9.82125 30.582H11.2245C11.5147 30.582 11.7082 30.7755 11.7082 31.0658C11.7082 31.356 11.5147 31.5495 11.2725 31.5495L11.274 31.5488Z" fill="#116ECB"/>
<path d="M36.387 31.5487C36.0968 31.5487 35.9032 31.3553 35.9032 31.065C35.9032 30.7747 36.0968 30.5813 36.387 30.5813H39.774C40.2578 30.5813 40.6935 30.1455 40.6935 29.6618V29.565V26.8073C40.6935 26.7585 40.6935 26.7585 40.6935 26.7105C40.5968 26.517 39.6772 25.5495 33.726 24.1943C33.6292 24.1943 33.5805 24.1455 33.4838 24.0975C33.435 24.0488 29.226 20.178 22.0162 20.178H21.4838C21.1935 20.178 21 19.9845 21 19.6943C21 19.404 21.1935 19.2105 21.4838 19.2105H22.0162C29.1293 19.2105 33.339 22.6943 34.065 23.3235C40.9845 24.8723 41.4683 26.0333 41.6138 26.4203C41.7105 26.6138 41.7105 26.8073 41.6625 26.9528V29.6138C41.6625 29.6138 41.6625 29.6625 41.6625 29.7105C41.6625 30.7268 40.8398 31.5975 39.8235 31.5975H36.3877L36.387 31.5487Z" fill="#116ECB"/>
<path d="M28.9838 31.5487H18.4838C18.1935 31.5487 18 31.3552 18 31.065C18 30.7748 18.1935 30.5813 18.4838 30.5813H28.9838C29.274 30.5813 29.4675 30.7748 29.4675 31.065C29.4675 31.3552 29.2253 31.5487 28.9838 31.5487Z" fill="#116ECB"/>
<path d="M13.6455 33.6772C12.0975 33.6772 10.791 32.4195 10.791 30.8227C10.791 29.274 12.0488 27.9682 13.6455 27.9682C15.1935 27.9682 16.5 29.226 16.5 30.8227C16.5 31.5967 16.2098 32.274 15.6773 32.8552C15.1448 33.3877 14.4195 33.678 13.6448 33.678L13.6455 33.6772ZM13.6455 28.9357C12.6293 28.9357 11.7585 29.7585 11.7585 30.8227C11.7585 31.839 12.5813 32.7097 13.6455 32.7097C14.1293 32.7097 14.613 32.5162 14.952 32.1772C15.291 31.8382 15.4845 31.3545 15.4845 30.8707C15.5325 29.8065 14.7105 28.935 13.6455 28.935V28.9357Z" fill="#116ECB"/>
<path d="M33.774 33.6292C32.2252 33.6292 30.9195 32.3715 30.9195 30.7747C30.9195 29.226 32.1772 27.9202 33.774 27.9202C35.3227 27.9202 36.6285 29.178 36.6285 30.7747C36.6285 32.3715 35.3707 33.6292 33.774 33.6292ZM33.774 28.9358C32.7577 28.9358 31.887 29.7585 31.887 30.8227C31.887 31.839 32.7097 32.7097 33.774 32.7097C34.7902 32.7097 35.661 31.887 35.661 30.8227C35.661 29.8065 34.8382 28.9358 33.774 28.9358Z" fill="#116ECB"/>
<path d="M30 24.6772H20.1772C19.887 24.6772 19.6935 24.4837 19.6935 24.1935C19.6935 23.9032 19.887 23.7097 20.1772 23.7097H30C30.2902 23.7097 30.4837 23.9032 30.4837 24.1935C30.4837 24.4837 30.2415 24.6772 30 24.6772Z" fill="#116ECB"/>
<path d="M21.9195 24.6772C21.6292 24.6772 21.4357 24.4837 21.4357 24.1935V19.6935C21.4357 19.4032 21.6292 19.2097 21.9195 19.2097C22.2097 19.2097 22.4032 19.4032 22.4032 19.6935V24.1935C22.4032 24.4837 22.161 24.6772 21.9195 24.6772Z" fill="#116ECB"/>
<path d="M9.29025 28.839H6.9675C6.67725 28.839 6.48375 28.6455 6.48375 28.3552C6.48375 28.065 6.67725 27.8715 6.9675 27.8715H9.29025C9.5805 27.8715 9.774 28.065 9.774 28.3552C9.774 28.6455 9.5805 28.839 9.29025 28.839Z" fill="#116ECB"/>
<path d="M41.0325 28.839H38.7097C38.4195 28.839 38.226 28.6455 38.226 28.3552C38.226 28.065 38.4195 27.8715 38.7097 27.8715H41.0325C41.3228 27.8715 41.5163 28.065 41.5163 28.3552C41.5163 28.6455 41.3228 28.839 41.0325 28.839Z" fill="#116ECB"/>
<path d="M13.6455 25.9358C10.452 25.9358 7.839 23.3227 7.839 20.178C7.839 17.0332 10.452 14.4202 13.6455 14.4202C16.839 14.4202 19.452 17.0332 19.452 20.178C19.452 23.3227 16.839 25.9358 13.6455 25.9358ZM13.6455 15.339C10.9845 15.339 8.8065 17.5163 8.8065 20.1293C8.8065 22.7423 10.9838 24.9195 13.6455 24.9195C16.3073 24.9195 18.4845 22.7423 18.4845 20.1293C18.4845 17.5163 16.3073 15.339 13.6455 15.339Z" fill="#116ECB"/>
<path d="M13.6455 23.7578C11.6618 23.7578 10.0163 22.1123 10.0163 20.1285C10.0163 18.1448 11.6618 16.4993 13.6455 16.4993C15.6293 16.4993 17.2748 18.1448 17.2748 20.1285C17.2748 22.1123 15.678 23.7578 13.6455 23.7578ZM13.6455 17.4675C12.1935 17.4675 10.9845 18.6773 10.9845 20.1285C10.9845 21.5798 12.1943 22.7895 13.6455 22.7895C15.0968 22.7895 16.3065 21.5798 16.3065 20.1285C16.3065 18.6765 15.1455 17.4675 13.6455 17.4675Z" fill="#116ECB"/>
<path d="M13.6455 21.6772C12.8228 21.6772 12.1455 21 12.1455 20.1772C12.1455 19.3545 12.8228 18.6772 13.6455 18.6772C14.4683 18.6772 15.1455 19.3545 15.1455 20.1772C15.1455 21 14.5163 21.6772 13.6455 21.6772ZM13.6455 19.5967C13.3553 19.5967 13.113 19.839 13.113 20.1292C13.113 20.4195 13.3553 20.6617 13.6455 20.6617C13.9358 20.6617 14.178 20.4195 14.178 20.1292C14.178 19.839 13.9845 19.5967 13.6455 19.5967Z" fill="#116ECB"/>
</svg>
