<svg width="48" height="48" viewBox="0 0 48 48" fill="none" xmlns="http://www.w3.org/2000/svg">
<path d="M38.4675 17.5162H9.58051C9.29026 17.5162 9.09676 17.3227 9.09676 17.0325C9.09676 16.7422 9.29026 16.5487 9.58051 16.5487H38.4675C38.7578 16.5487 38.9513 16.7422 38.9513 17.0325C38.9513 17.3227 38.709 17.5162 38.4675 17.5162Z" fill="#116ECB"/>
<path d="M23.661 11.4675H17.9032C17.613 11.4675 17.4195 11.274 17.4195 10.9838C17.4195 10.6935 17.613 10.5 17.9032 10.5H23.661C23.9512 10.5 24.1447 10.6935 24.1447 10.9838C24.1447 11.274 23.9512 11.4675 23.661 11.4675Z" fill="#116ECB"/>
<path d="M9.58051 17.5162C9.29026 17.5162 9.09676 17.3227 9.09676 17.0325V11.5162C9.09676 10.9357 9.58051 10.452 10.161 10.452H15.2415C15.5318 10.452 15.7253 10.6455 15.7253 10.9357C15.7253 11.226 15.5318 11.4195 15.2415 11.4195H10.1123C10.0635 11.4195 10.0155 11.4682 10.0155 11.5162V16.9837C10.0643 17.274 9.82201 17.5162 9.57976 17.5162H9.58051Z" fill="#116ECB"/>
<path d="M36.0488 39.5805H11.952C10.3553 39.5805 9.04875 38.274 9.04875 36.6772V17.0317C9.04875 16.7415 9.24225 16.548 9.5325 16.548C9.82275 16.548 10.0163 16.7415 10.0163 17.0317V36.7253C10.0163 37.7895 10.887 38.661 11.952 38.661H36.0008C37.065 38.661 37.9365 37.7902 37.9365 36.7253V11.5642C37.9365 11.5155 37.8878 11.4675 37.8398 11.4675H34.8398C34.5495 11.4675 34.356 11.274 34.356 10.9838C34.356 10.6935 34.5495 10.5 34.8398 10.5H37.8398C38.4203 10.5 38.904 10.9837 38.904 11.5642V36.7253C38.9528 38.274 37.6463 39.5798 36.0495 39.5798L36.0488 39.5805Z" fill="#116ECB"/>
<path d="M32.1772 11.4675H26.4195C26.1292 11.4675 25.9357 11.274 25.9357 10.9838C25.9357 10.6935 26.1292 10.5 26.4195 10.5H32.1772C32.4675 10.5 32.661 10.6935 32.661 10.9838C32.661 11.274 32.4187 11.4675 32.1772 11.4675Z" fill="#116ECB"/>
<path d="M15.5325 13.5967C15.2423 13.5967 15.0488 13.4032 15.0488 13.113V8.90324C15.0488 8.61299 15.2423 8.41949 15.5325 8.41949C15.8228 8.41949 16.0163 8.61299 16.0163 8.90324V13.113C16.0163 13.3552 15.774 13.5967 15.5325 13.5967Z" fill="#116ECB"/>
<path d="M24 13.5967C23.7098 13.5967 23.5163 13.4032 23.5163 13.113V8.90324C23.5163 8.61299 23.7098 8.41949 24 8.41949C24.2902 8.41949 24.4837 8.61299 24.4837 8.90324V13.113C24.4837 13.3552 24.2902 13.5967 24 13.5967Z" fill="#116ECB"/>
<path d="M32.5163 13.5967C32.226 13.5967 32.0325 13.4032 32.0325 13.113V8.90324C32.0325 8.61299 32.226 8.41949 32.5163 8.41949C32.8065 8.41949 33 8.61299 33 8.90324V13.113C33 13.3552 32.7578 13.5967 32.5163 13.5967Z" fill="#116ECB"/>
<path d="M30.387 30.9675C30.0967 30.9675 29.9032 30.774 29.9032 30.4838C29.9032 30.1935 30.0967 30 30.387 30H32.0805C32.1772 30 32.226 29.9513 32.226 29.9513C32.226 29.9025 32.2747 29.8545 32.2747 29.8058V28.4025C32.1292 28.257 31.452 27.822 28.9357 27.2895C28.839 27.2895 28.7902 27.2408 28.7422 27.1928C27.1455 25.8863 25.113 25.209 23.0812 25.257H20.6617C20.3227 25.257 20.0812 25.4025 19.6942 25.6928C19.017 26.1285 18.0487 26.757 15.9682 26.8058V29.709C15.9682 29.7578 15.9682 29.7578 15.9682 29.8058C15.9682 29.8538 16.2105 30.096 16.9845 30.096H17.7105C18.0007 30.096 18.1942 30.2895 18.1942 30.5798C18.1942 30.87 18.0007 31.0635 17.7105 31.0635H16.9845C16.1617 31.0635 15.5812 30.87 15.291 30.483C15.0007 30.096 15.0007 29.757 15.0007 29.6123V26.7578C15.0007 26.0318 15.5332 25.7903 15.8715 25.7903C17.7585 25.7903 18.5812 25.2578 19.2105 24.8708C19.6462 24.5805 20.0812 24.2903 20.7105 24.2903H23.13C25.356 24.2415 27.5812 24.9675 29.3235 26.3708C32.517 27.0968 33.0975 27.6773 33.243 28.0643C33.2917 28.2098 33.2917 28.3065 33.2917 28.4513V29.7578C33.2917 30.0968 33.195 30.435 32.9527 30.6285C32.7105 30.822 32.4202 30.9675 32.082 30.9675H30.3885H30.387Z" fill="#116ECB"/>
<path d="M18.9195 32.0325C18 32.0325 17.226 31.3065 17.226 30.387C17.226 29.9513 17.4195 29.5163 17.7097 29.1773C18.0487 28.8383 18.4357 28.6935 18.8707 28.6935C19.7902 28.6935 20.5642 29.4675 20.5642 30.339C20.5642 31.3065 19.8382 32.0325 18.9187 32.0325H18.9195ZM18.9195 29.661C18.726 29.661 18.5325 29.7578 18.4357 29.8545C18.2902 30 18.2422 30.1448 18.2422 30.3383C18.2422 30.7253 18.5812 31.0643 18.9682 31.0643C19.3552 31.0643 19.6942 30.7253 19.6942 30.3383C19.5975 29.9993 19.3072 29.661 18.9202 29.661H18.9195Z" fill="#116ECB"/>
<path d="M29.0805 32.0325C28.161 32.0325 27.387 31.3065 27.387 30.387C27.387 29.9513 27.5805 29.5163 27.8707 29.1773C28.2097 28.8383 28.5967 28.6935 29.0317 28.6935C29.9512 28.6935 30.7252 29.4195 30.7252 30.339C30.774 31.3065 29.9992 32.0325 29.0797 32.0325H29.0805ZM29.0805 29.661C28.887 29.661 28.6935 29.7578 28.5967 29.8545C28.4512 30 28.4032 30.1448 28.4032 30.3383C28.4032 30.7253 28.7422 31.0643 29.1292 31.0643C29.5162 31.0643 29.8552 30.7253 29.8552 30.3383C29.8065 29.9993 29.4682 29.661 29.0812 29.661H29.0805Z" fill="#116ECB"/>
<path d="M25.6935 30.9675H22.2578C21.9675 30.9675 21.774 30.774 21.774 30.4838C21.774 30.1935 21.9675 30 22.2578 30H25.6935C25.9838 30 26.1773 30.1935 26.1773 30.4838C26.1773 30.774 25.9838 30.9675 25.6935 30.9675Z" fill="#116ECB"/>
</svg>
