<svg width="64" height="64" viewBox="0 0 64 64" fill="none" xmlns="http://www.w3.org/2000/svg">
<path d="M25.484 55.484C25.29 55.484 25.032 55.355 24.903 55.161L21.806 50.129L15.935 50.968C15.677 51.033 15.483 50.903 15.354 50.71C15.225 50.517 15.16 50.258 15.289 50.065L20.644 38.646C20.773 38.323 21.16 38.194 21.483 38.323C21.806 38.452 21.935 38.839 21.806 39.162L16.967 49.549L22.064 48.775C22.322 48.71 22.58 48.84 22.709 49.098L25.419 53.485L29.225 45.291C29.354 44.968 29.741 44.839 30.064 44.968C30.387 45.097 30.516 45.484 30.387 45.807L26.064 55.097C25.935 55.355 25.741 55.484 25.483 55.484H25.484Z" fill="#116ECB"/>
<path d="M38.516 55.484C38.258 55.484 38 55.355 37.935 55.097L33.612 45.807C33.483 45.484 33.612 45.097 33.935 44.968C34.258 44.839 34.645 44.968 34.774 45.291L38.58 53.485L41.29 49.098C41.419 48.904 41.677 48.775 41.935 48.775L47.032 49.549L42.193 39.162C42.064 38.839 42.193 38.452 42.516 38.323C42.839 38.194 43.226 38.323 43.355 38.646L48.71 50.13C48.839 50.324 48.775 50.582 48.645 50.775C48.515 50.968 48.258 51.033 48.064 51.033L42.193 50.194L39.096 55.226C38.967 55.42 38.773 55.484 38.515 55.484H38.516Z" fill="#116ECB"/>
<path d="M32 12.323C31.613 12.323 31.355 12.065 31.355 11.678V9.097C31.355 8.71 31.613 8.452 32 8.452C32.387 8.452 32.645 8.71 32.645 9.097V11.678C32.645 12.065 32.387 12.323 32 12.323Z" fill="#116ECB"/>
<path d="M38.387 14.065C38.258 14.065 38.193 14.065 38.064 14C37.741 13.806 37.677 13.419 37.806 13.097L39.096 10.903C39.29 10.58 39.677 10.516 39.999 10.645C40.322 10.839 40.386 11.226 40.257 11.548L38.967 13.742C38.838 13.936 38.58 14.065 38.386 14.065H38.387Z" fill="#116ECB"/>
<path d="M43.032 18.774C42.774 18.774 42.58 18.645 42.451 18.451C42.257 18.128 42.386 17.741 42.709 17.548L44.967 16.322C45.29 16.128 45.677 16.258 45.87 16.58C46.063 16.902 45.935 17.29 45.612 17.483L43.354 18.709C43.225 18.773 43.096 18.773 43.031 18.773L43.032 18.774Z" fill="#116ECB"/>
<path d="M47.161 25.29L44.58 25.226C44.193 25.226 43.935 24.903 43.935 24.581C43.935 24.194 44.258 23.936 44.58 23.936L47.161 24C47.548 24 47.806 24.323 47.806 24.645C47.806 24.967 47.483 25.29 47.161 25.29Z" fill="#116ECB"/>
<path d="M25.613 14.065C25.419 14.065 25.161 13.936 25.032 13.742L23.742 11.548C23.548 11.225 23.678 10.838 24 10.645C24.322 10.452 24.71 10.58 24.903 10.903L26.193 13.097C26.387 13.42 26.257 13.807 25.935 14C25.871 14.065 25.741 14.065 25.612 14.065H25.613Z" fill="#116ECB"/>
<path d="M20.968 18.774C20.839 18.774 20.774 18.774 20.645 18.71L18.451 17.484C18.128 17.29 17.999 16.903 18.193 16.581C18.387 16.259 18.774 16.129 19.096 16.323L21.29 17.549C21.613 17.743 21.742 18.13 21.548 18.452C21.419 18.71 21.225 18.775 20.967 18.775L20.968 18.774Z" fill="#116ECB"/>
<path d="M16.839 25.29C16.516 25.29 16.194 25.032 16.194 24.645C16.194 24.258 16.452 24 16.839 24L19.355 23.936C19.678 23.936 20 24.194 20 24.581C20 24.968 19.742 25.226 19.355 25.226L16.839 25.29Z" fill="#116ECB"/>
<path d="M19.097 32.903C18.903 32.903 18.645 32.774 18.516 32.58C18.322 32.257 18.452 31.87 18.71 31.677L20.904 30.322C21.227 30.128 21.614 30.258 21.807 30.516C22.001 30.839 21.871 31.226 21.613 31.419L19.419 32.774C19.355 32.839 19.225 32.903 19.096 32.903H19.097Z" fill="#116ECB"/>
<path d="M44.903 32.903C44.774 32.903 44.645 32.903 44.58 32.838L42.386 31.483C42.063 31.289 41.999 30.902 42.192 30.58C42.385 30.258 42.773 30.193 43.095 30.386L45.289 31.741C45.612 31.935 45.676 32.322 45.483 32.644C45.354 32.773 45.096 32.902 44.902 32.902L44.903 32.903Z" fill="#116ECB"/>
<path d="M32.323 27.032C30.904 27.032 29.807 25.871 29.807 24.516C29.807 23.097 30.968 22 32.323 22C33.678 22 34.839 23.097 34.839 24.516C34.839 25.871 33.742 27.032 32.323 27.032ZM32.323 23.29C31.613 23.29 31.097 23.871 31.097 24.516C31.097 25.161 31.678 25.742 32.323 25.742C33.033 25.742 33.549 25.161 33.549 24.516C33.549 23.871 33.033 23.29 32.323 23.29Z" fill="#116ECB"/>
<path d="M34.194 24.581C33.936 24.581 33.678 24.387 33.549 24.129C33.42 23.806 33.614 23.419 33.936 23.29L41.936 20.645C42.259 20.516 42.646 20.709 42.775 21.032C42.904 21.355 42.71 21.742 42.388 21.871L34.453 24.516C34.324 24.58 34.259 24.58 34.195 24.58L34.194 24.581Z" fill="#116ECB"/>
<path d="M28.129 26.581C27.871 26.581 27.613 26.387 27.548 26.129C27.419 25.806 27.612 25.419 27.935 25.29L30.322 24.516C30.645 24.387 31.032 24.58 31.161 24.903C31.29 25.226 31.097 25.613 30.774 25.742L28.387 26.516C28.323 26.58 28.258 26.58 28.129 26.58V26.581Z" fill="#116ECB"/>
<path d="M32 40.129C23.29 40.129 16.194 33.032 16.194 24.323C16.194 15.614 23.291 8.517 32 8.517C40.71 8.517 47.806 15.614 47.806 24.323C47.806 33.032 40.709 40.129 32 40.129ZM32 9.806C24 9.806 17.484 16.322 17.484 24.322C17.484 32.322 24 38.838 32 38.838C40 38.838 46.516 32.322 46.516 24.322C46.516 16.322 40 9.806 32 9.806Z" fill="#116ECB"/>
</svg>
