<svg width="64" height="64" viewBox="0 0 64 64" fill="none" xmlns="http://www.w3.org/2000/svg">
<path d="M48.452 51.29C48.065 51.29 47.807 51.032 47.807 50.645V12.258C47.807 11.871 47.549 11.613 47.162 11.613H39.936C39.549 11.613 39.291 11.355 39.291 10.968C39.291 10.581 39.549 10.323 39.936 10.323H47.226C48.323 10.323 49.161 11.162 49.161 12.258V50.645C49.096 51.032 48.838 51.29 48.451 51.29H48.452Z" fill="#F8C600"/>
<path d="M17.419 55.484C16.064 55.484 14.967 54.387 14.903 53.032V12.838C14.903 11.483 16 10.322 17.419 10.322H23.225V9.16099C23.225 8.77399 23.483 8.51599 23.87 8.51599H39.934C40.321 8.51599 40.579 8.77399 40.579 9.16099V16.258C40.579 16.645 40.321 16.903 39.934 16.903H23.87C23.483 16.903 23.225 16.645 23.225 16.258V11.613H17.419C16.774 11.613 16.193 12.129 16.193 12.839V53.033C16.193 53.678 16.774 54.194 17.419 54.194H44.258C44.645 54.194 44.903 54.452 44.903 54.839C44.903 55.226 44.645 55.484 44.258 55.484H17.419ZM24.516 15.613H39.29V9.80699H24.516V15.613Z" fill="#F8C600"/>
<path d="M36.581 52.516H19.807C19.226 52.516 18.71 52.258 18.323 51.806C17.936 51.419 17.742 50.838 17.742 50.258V15.419C17.742 14.838 17.936 14.322 18.323 13.935C18.71 13.548 19.226 13.29 19.807 13.29H21.162C21.549 13.29 21.807 13.548 21.807 13.935C21.807 14.322 21.549 14.58 21.162 14.58H19.807C19.613 14.58 19.355 14.709 19.226 14.838C19.097 15.032 18.968 15.225 18.968 15.419V50.258C18.968 50.516 19.032 50.71 19.162 50.903C19.292 51.096 19.549 51.161 19.743 51.161H36.195L44.905 42.064V15.483C44.905 15.225 44.84 15.031 44.647 14.838C44.454 14.645 44.26 14.58 44.066 14.58H42.518C42.131 14.58 41.873 14.322 41.873 13.935C41.873 13.548 42.131 13.29 42.518 13.29H44.066C44.647 13.29 45.163 13.548 45.55 13.935C45.937 14.322 46.131 14.903 46.131 15.483V15.548V42.387C46.131 42.581 46.066 42.71 45.937 42.839L37.034 52.323C36.905 52.452 36.711 52.517 36.582 52.517L36.581 52.516Z" fill="#F8C600"/>
<path d="M36.581 52.5159C36.194 52.5159 35.936 52.2579 35.936 51.8709V42.3869C35.936 41.9999 36.194 41.7419 36.581 41.7419H41.162C41.549 41.7419 41.807 41.9999 41.807 42.3869C41.807 42.7739 41.549 43.0319 41.162 43.0319H37.227V51.8709C37.227 52.2579 36.904 52.5159 36.582 52.5159H36.581Z" fill="#F8C600"/>
<path d="M22.71 31.161C22.516 31.161 22.387 31.097 22.258 30.967C22.129 30.837 22.064 30.709 22.064 30.515C22.064 30.321 22.128 30.192 22.258 30.063C22.516 29.805 22.903 29.805 23.161 30.063C23.29 30.192 23.355 30.386 23.355 30.515C23.355 30.709 23.291 30.838 23.161 30.967C23.032 31.031 22.903 31.161 22.709 31.161H22.71Z" fill="#F8C600"/>
<path d="M41.097 31.161H24.903C24.516 31.161 24.258 30.903 24.258 30.516C24.258 30.129 24.516 29.871 24.903 29.871H41.097C41.484 29.871 41.742 30.129 41.742 30.516C41.742 30.903 41.484 31.161 41.097 31.161Z" fill="#F8C600"/>
<path d="M22.71 34.194C22.516 34.194 22.387 34.129 22.258 34C22.129 33.871 22.064 33.742 22.064 33.548C22.064 33.483 22.064 33.354 22.128 33.29C22.128 33.225 22.192 33.161 22.257 33.096C22.322 33.031 22.386 32.967 22.451 32.967C22.516 32.967 22.709 32.902 22.838 32.902C22.902 32.902 22.902 32.902 22.967 32.967C23.031 32.967 23.096 33.032 23.161 33.096C23.226 33.16 23.29 33.225 23.29 33.29C23.29 33.355 23.354 33.419 23.354 33.548C23.354 33.742 23.29 33.871 23.16 34C23.03 34.129 22.902 34.194 22.708 34.194H22.71Z" fill="#F8C600"/>
<path d="M41.097 34.1941H24.903C24.516 34.1941 24.258 33.9361 24.258 33.5491C24.258 33.1621 24.516 32.9041 24.903 32.9041H41.097C41.484 32.9041 41.742 33.1621 41.742 33.5491C41.742 33.9361 41.484 34.1941 41.097 34.1941Z" fill="#F8C600"/>
<path d="M22.71 37.226C22.516 37.226 22.387 37.161 22.258 37.032C22.129 36.903 22.064 36.774 22.064 36.58C22.064 36.515 22.064 36.3859 22.128 36.3219C22.128 36.2569 22.192 36.1929 22.257 36.1279C22.515 35.8699 22.902 35.8699 23.16 36.1279C23.289 36.2569 23.354 36.451 23.354 36.58C23.354 36.774 23.29 36.903 23.16 37.032C23.03 37.161 22.902 37.226 22.708 37.226H22.71Z" fill="#F8C600"/>
<path d="M41.097 37.226H24.903C24.516 37.226 24.258 36.968 24.258 36.581C24.258 36.194 24.516 35.936 24.903 35.936H41.097C41.484 35.936 41.742 36.194 41.742 36.581C41.742 36.968 41.484 37.226 41.097 37.226Z" fill="#F8C600"/>
<path d="M39.742 26.452H38.065C37.678 26.452 37.42 26.194 37.42 25.807C37.42 25.42 37.678 25.162 38.065 25.162H39.742L40.452 25.098H39.807V23.808C39.613 23.679 38.904 23.292 36.71 22.776C36.581 22.776 36.516 22.712 36.452 22.647C34.968 21.421 33.033 20.711 31.097 20.776H28.71C28.452 20.776 28.258 20.905 27.871 21.163C27.226 21.615 26.258 22.195 24.323 22.26V24.905C24.387 24.969 24.581 25.034 25.162 25.034H25.872C26.259 25.034 26.517 25.292 26.517 25.679C26.517 26.066 26.259 26.324 25.872 26.324H25.162C24.323 26.324 23.678 26.13 23.356 25.679C23.098 25.356 23.033 25.034 23.033 24.84V22.066C23.033 21.356 23.549 20.969 24.065 20.969C25.871 20.969 26.581 20.517 27.226 20.066C27.678 19.743 28.129 19.485 28.774 19.485H31.161C33.355 19.421 35.548 20.195 37.226 21.549C40.323 22.259 40.968 22.775 41.161 23.291C41.226 23.42 41.226 23.614 41.226 23.743V25.033C41.226 25.42 41.097 25.743 40.839 26.001C40.452 26.324 40.129 26.453 39.742 26.453V26.452Z" fill="#F8C600"/>
<path d="M26.903 27.484C25.871 27.484 25.097 26.645 25.097 25.613C25.097 24.645 25.936 23.871 26.903 23.871C27.355 23.871 27.806 24.065 28.193 24.387C28.516 24.71 28.709 25.161 28.709 25.677V25.741C28.709 26.193 28.515 26.644 28.128 27.031C27.805 27.289 27.354 27.483 26.902 27.483L26.903 27.484ZM26.903 25.161C26.645 25.161 26.387 25.419 26.387 25.677C26.387 25.935 26.581 26.193 26.903 26.193C27.032 26.193 27.161 26.129 27.29 26.064C27.419 25.999 27.419 25.87 27.419 25.677C27.419 25.548 27.355 25.419 27.29 25.29C27.161 25.226 27.032 25.161 26.903 25.161Z" fill="#F8C600"/>
<path d="M36.839 27.4839C35.871 27.4839 35.033 26.6449 35.033 25.6779C35.033 24.7109 35.872 23.8719 36.839 23.8719C37.291 23.8719 37.742 24.0659 38.129 24.3879C38.452 24.7109 38.645 25.1619 38.645 25.6779C38.645 26.7099 37.806 27.4839 36.839 27.4839ZM36.839 25.1609C36.516 25.1609 36.323 25.4189 36.323 25.6769C36.323 25.9349 36.581 26.1929 36.839 26.1929C37.097 26.1929 37.355 25.9349 37.355 25.6769C37.355 25.5479 37.29 25.4189 37.226 25.2899C37.097 25.2259 36.968 25.1609 36.839 25.1609Z" fill="#F8C600"/>
<path d="M33.548 26.452H30.193C29.806 26.452 29.548 26.194 29.548 25.807C29.548 25.42 29.806 25.162 30.193 25.162H33.548C33.935 25.162 34.193 25.42 34.193 25.807C34.193 26.194 33.87 26.452 33.548 26.452Z" fill="#F8C600"/>
</svg>
