<?xml version="1.0" encoding="utf-8"?>
<!-- Generated by IcoMoon.io -->
<!DOCTYPE svg PUBLIC "-//W3C//DTD SVG 1.1//EN" "http://www.w3.org/Graphics/SVG/1.1/DTD/svg11.dtd">
<svg version="1.1" xmlns="http://www.w3.org/2000/svg" xmlns:xlink="http://www.w3.org/1999/xlink" width="18" height="18" viewBox="0 0 18 18">
<path fill="#444" d="M9 1.622c2.403 0 2.688 0.009 3.637 0.052 1.024 0.047 1.975 0.252 2.706 0.983s0.937 1.682 0.983 2.706c0.043 0.949 0.052 1.234 0.052 3.637s-0.009 2.688-0.052 3.637c-0.047 1.024-0.252 1.975-0.983 2.706s-1.682 0.937-2.706 0.983c-0.949 0.043-1.234 0.052-3.637 0.052s-2.688-0.009-3.637-0.052c-1.024-0.047-1.975-0.252-2.706-0.983s-0.937-1.682-0.983-2.706c-0.043-0.949-0.052-1.234-0.052-3.637s0.009-2.688 0.052-3.637c0.047-1.024 0.252-1.975 0.983-2.706s1.682-0.937 2.706-0.983c0.949-0.043 1.234-0.052 3.637-0.052zM9 0c-2.444 0-2.751 0.010-3.711 0.054-1.462 0.067-2.747 0.425-3.779 1.456s-1.389 2.316-1.456 3.779c-0.044 0.96-0.054 1.267-0.054 3.711s0.010 2.751 0.054 3.711c0.067 1.463 0.425 2.747 1.456 3.779s2.316 1.389 3.779 1.456c0.96 0.044 1.267 0.054 3.711 0.054s2.751-0.010 3.711-0.054c1.463-0.067 2.747-0.425 3.779-1.456s1.389-2.316 1.456-3.779c0.044-0.96 0.054-1.267 0.054-3.711s-0.010-2.751-0.054-3.711c-0.067-1.462-0.425-2.747-1.456-3.779s-2.316-1.389-3.779-1.456c-0.96-0.044-1.267-0.054-3.711-0.054v0z"></path>
<path fill="#444" d="M9 4.378c-2.553 0-4.621 2.069-4.621 4.622s2.069 4.622 4.621 4.622 4.622-2.069 4.622-4.622c0-2.553-2.069-4.621-4.622-4.621zM9 12c-1.657 0-3-1.343-3-3s1.343-3 3-3c1.657 0 3 1.343 3 3s-1.343 3-3 3z"></path>
<path fill="#444" d="M14.884 4.196c0 0.596-0.484 1.080-1.080 1.080s-1.080-0.484-1.080-1.080c0-0.596 0.484-1.080 1.080-1.080s1.080 0.484 1.080 1.080z"></path>
</svg>
