<?xml version="1.0" encoding="utf-8"?>
<!-- Generated by IcoMoon.io -->
<!DOCTYPE svg PUBLIC "-//W3C//DTD SVG 1.1//EN" "http://www.w3.org/Graphics/SVG/1.1/DTD/svg11.dtd">
<svg version="1.1" xmlns="http://www.w3.org/2000/svg" xmlns:xlink="http://www.w3.org/1999/xlink" width="18" height="18" viewBox="0 0 18 18">
<path fill="#444" d="M4.789 6.429v9.945h-3.311v-9.945h3.311zM5.001 3.343c0.001 0.020 0.001 0.044 0.001 0.068 0 0.457-0.193 0.869-0.502 1.159-0.341 0.309-0.795 0.497-1.292 0.497-0.025 0-0.050-0-0.075-0.001l0.004 0c-0.023 0.001-0.050 0.002-0.078 0.002-0.483 0-0.922-0.189-1.247-0.497-0.324-0.301-0.526-0.73-0.526-1.206 0-0.007 0-0.014 0-0.022-0-0.010-0-0.023-0-0.036 0-0.47 0.2-0.893 0.52-1.189 0.335-0.305 0.781-0.491 1.271-0.491 0.028 0 0.056 0.001 0.084 0.002 0.024-0.002 0.056-0.002 0.089-0.002 0.484 0 0.924 0.187 1.252 0.492 0.316 0.305 0.513 0.733 0.513 1.208 0 0.007-0 0.013-0 0.020v-0.001zM16.714 10.665v5.709h-3.304v-5.323c0.003-0.049 0.005-0.107 0.005-0.165 0-0.549-0.152-1.063-0.417-1.501-0.256-0.354-0.681-0.59-1.161-0.59-0.041 0-0.082 0.002-0.123 0.005-0.011-0.001-0.031-0.001-0.050-0.001-0.381 0-0.732 0.131-1.009 0.351-0.277 0.223-0.496 0.513-0.634 0.845-0.076 0.231-0.116 0.481-0.116 0.74 0 0.032 0.001 0.063 0.002 0.095l-0 5.55h-3.285q0-4.005 0-6.499t0-2.97v-0.482h3.304v1.446c0.116-0.22 0.236-0.407 0.368-0.584 0.164-0.178 0.349-0.348 0.548-0.502 0.258-0.198 0.55-0.348 0.866-0.44 0.347-0.103 0.723-0.159 1.114-0.159 0.020 0 0.039 0 0.059 0 0.041-0.002 0.094-0.003 0.146-0.003 1.032 0 1.962 0.438 2.613 1.139 0.676 0.82 1.085 1.879 1.085 3.034 0 0.107-0.004 0.214-0.010 0.319l0.001-0.014z"></path>
</svg>
