<svg width="63" height="64" viewBox="0 0 63 64" fill="none" xmlns="http://www.w3.org/2000/svg">
<path d="M20.5489 27.5484C20.5489 28.1936 21.0503 28.7097 21.6771 28.7097C22.304 28.7097 22.8054 28.1936 22.8054 27.5484C22.8054 26.9032 22.304 26.4516 21.6771 26.4516C21.0503 26.3871 20.5489 26.9032 20.5489 27.5484ZM21.8025 27.4839C21.8025 27.5484 21.7398 27.6129 21.6771 27.6129C21.6145 27.6129 21.5518 27.5484 21.5518 27.4839C21.5518 27.3548 21.8025 27.3548 21.8025 27.4839Z" fill="#004B8D"/>
<path d="M37.5981 22.4516C40.6695 22.4516 43.1141 19.9355 43.1141 16.7742C43.1141 13.6129 40.6695 11.0968 37.5981 11.0968C34.5268 11.0968 32.0822 13.6129 32.0822 16.7742C32.0822 19.9355 34.5894 22.4516 37.5981 22.4516ZM37.5981 12.3871C39.9173 12.3871 41.8604 14.3871 41.8604 16.7742C41.8604 19.1613 39.9173 21.1613 37.5981 21.1613C35.2789 21.1613 33.3358 19.1613 33.3358 16.7742C33.3358 14.3871 35.2789 12.3871 37.5981 12.3871Z" fill="#004B8D"/>
<path d="M36.3445 19.8065C36.7206 19.8065 36.9713 19.5484 36.9713 19.1613V17.6129H37.4101L38.3503 19.4194C38.4757 19.6129 38.6637 19.742 38.9144 19.742C39.0398 19.742 39.1025 19.742 39.2278 19.6775C39.5412 19.4839 39.6666 19.0968 39.4786 18.7742L38.7264 17.3549C39.2905 17.0323 39.7293 16.3226 39.6666 15.6129C39.6039 14.5807 38.7264 13.871 37.7862 13.9355H36.3445C35.9684 13.9355 35.7177 14.1936 35.7177 14.5807V16.9678V19.1613C35.7177 19.4839 35.9684 19.8065 36.3445 19.8065ZM36.9713 15.2258H37.8489C38.1623 15.2258 38.413 15.4194 38.413 15.742C38.413 16.0646 38.2249 16.3226 37.9115 16.3226C37.9115 16.3226 37.8489 16.3226 37.7862 16.3226H36.9713V15.2258Z" fill="#004B8D"/>
<path d="M30.7659 24.5162C30.7659 24.9033 31.0793 25.1613 31.4554 25.0968C32.897 24.9678 34.3387 25.2258 35.7177 25.742C35.7804 25.742 35.843 25.8065 35.9684 25.8065C36.2191 25.8065 36.4698 25.6775 36.5325 25.4194C36.6579 25.0968 36.4698 24.7097 36.1564 24.5807C34.6521 24 32.9597 23.742 31.33 23.871C30.9539 23.871 30.7032 24.1936 30.7659 24.5162Z" fill="#004B8D"/>
<path d="M54.2712 36.0645C54.0205 35.8065 53.6444 35.8065 53.3937 36C53.143 36.2581 52.4535 36.1936 51.7013 35.6774C51.8267 35.6129 51.952 35.5484 52.0147 35.4839C52.0147 35.4839 52.0774 35.4839 52.0774 35.4194C52.8296 34.8387 53.3937 33.9355 53.6444 32.9678C53.9578 31.8065 53.8951 30.5807 53.4564 29.742C53.2056 29.2258 52.8296 28.9032 52.3281 28.8387C51.0745 28.5161 49.6328 29.6774 49.1314 31.6129C48.818 32.5807 48.818 33.6129 49.1941 34.6452C49.2567 34.7742 49.3194 34.8387 49.3821 34.9678C48.8807 34.9678 48.4419 34.9032 48.1285 34.7097C48.0031 34.6452 47.8778 34.5161 47.8151 34.3871C47.8151 34.3226 47.8151 34.2581 47.8151 34.1936C47.7524 29.6129 45.5586 25.2258 41.9231 22.5807C41.6724 22.3871 41.2336 22.4516 41.0456 22.7097C40.8575 22.9678 40.9202 23.4194 41.1709 23.6129C44.493 26.0645 46.4988 30 46.5615 34.1936C46.5615 34.2581 46.5615 34.2581 46.5615 34.3226C46.5615 34.3871 46.5615 34.4516 46.5615 34.5161C46.4361 39.6129 43.1767 44.3226 38.1622 46.6452C37.9115 46.7742 37.7861 46.9678 37.7861 47.2258V51.4194H33.7746V49.6129C33.7746 48.7742 33.0851 48.0645 32.2076 48.0645H28.5094C28.1333 48.0645 27.6945 48.1936 27.4438 48.4516C27.1304 48.7097 27.005 49.0968 26.9424 49.5484V49.6129V51.4194H22.9308V47.2903C22.9308 47.0323 22.8054 46.7742 22.5547 46.7097C19.7341 45.4194 17.3522 43.2903 15.7852 40.5161C15.3464 39.7419 14.5942 39.2903 13.7167 39.2903H11.9616C10.708 34.7742 9.64244 29.6129 9.95584 28.4516C11.7109 29.0323 13.5913 28.9678 15.3464 28.3226C15.3464 28.3226 15.4091 28.3226 15.4091 28.2581C15.5971 28.129 15.7225 28 15.8478 27.871L15.9105 27.8065C17.2268 25.5484 19.1073 23.6774 21.3011 22.4516C21.3638 22.3871 21.4891 22.3226 21.4891 22.2581C21.6145 22.129 21.6145 22 21.6145 21.8065L21.5518 16.8387C23.871 17.3549 25.8141 20.3226 25.8141 20.3226C25.9395 20.5161 26.1275 20.5807 26.3155 20.5807H26.3782C26.4409 20.5807 26.4409 20.5807 26.5036 20.5807C27.3184 20.4516 28.1333 20.3871 29.0108 20.3871H30.3898C30.7659 20.3871 31.0166 20.129 31.0166 19.742C31.0166 19.3549 30.7659 19.0968 30.3898 19.0968H29.0108C28.2587 19.0968 27.4438 19.1613 26.6916 19.2903C26.0021 18.3226 23.683 15.4839 20.925 15.4839C20.737 15.4839 20.6116 15.5484 20.4862 15.6774C20.3609 15.8065 20.2982 15.9355 20.2982 16.129L20.3609 21.4839C18.1044 22.8387 16.1612 24.7742 14.7823 27.0968C13.2779 27.6774 11.6482 27.6774 10.1439 27.0968C9.7678 26.9678 9.39171 27.0323 9.07831 27.2903C8.51418 27.8065 8.01274 30.1936 10.8334 40.0645C10.8961 40.3226 11.1468 40.5161 11.4602 40.5161H13.7167C14.0928 40.5161 14.4689 40.7097 14.7196 41.0968C16.3493 43.9355 18.7938 46.1936 21.6772 47.6129V52C21.6772 52.3871 21.9279 52.6452 22.304 52.6452H27.5692C27.9453 52.6452 28.196 52.3871 28.196 52V49.5484C28.196 49.4839 28.2587 49.4194 28.2587 49.3549C28.2587 49.3549 28.3213 49.2903 28.4467 49.2903H32.2076C32.2702 49.2903 32.3329 49.3549 32.3956 49.3549C32.3956 49.3549 32.4583 49.4194 32.4583 49.5484V52C32.4583 52.3871 32.709 52.6452 33.0851 52.6452H38.3503C38.7264 52.6452 38.9771 52.3871 38.9771 52V47.6129C43.7408 45.2903 47.0002 40.8387 47.627 35.9355C48.3165 36.2581 49.2568 36.3871 50.197 36.1936C51.0118 37.0323 52.0147 37.4839 52.8296 37.4839C53.331 37.4839 53.7698 37.3549 54.1459 37.0323C54.4593 36.7097 54.5219 36.3226 54.2712 36.0645ZM50.6984 34.7097C50.573 34.5161 50.4477 34.3226 50.385 34.129C50.1343 33.4839 50.1343 32.7097 50.385 32C50.6984 30.8387 51.4506 30.0645 51.952 30.0645C52.0147 30.0645 52.0147 30.0645 52.0774 30.0645C52.2028 30.129 52.3281 30.1936 52.3908 30.3871C52.6415 30.9032 52.7042 31.742 52.4535 32.5807C52.2654 33.2903 51.8893 33.871 51.3252 34.3226C51.1372 34.5161 50.9491 34.6452 50.6984 34.7097Z" fill="#004B8D"/>
</svg>
