<?xml version="1.0" encoding="utf-8"?>
<!-- Generated by IcoMoon.io -->
<!DOCTYPE svg PUBLIC "-//W3C//DTD SVG 1.1//EN" "http://www.w3.org/Graphics/SVG/1.1/DTD/svg11.dtd">
<svg version="1.1" xmlns="http://www.w3.org/2000/svg" xmlns:xlink="http://www.w3.org/1999/xlink" width="18" height="18" viewBox="0 0 18 18">
<path fill="#444" d="M9 0c-4.95 0-9 4.050-9 9 0 3.825 2.363 7.088 5.737 8.381-0.056-0.731-0.169-1.8 0.056-2.587 0.169-0.675 1.069-4.5 1.069-4.5s-0.281-0.563-0.281-1.35c0-1.238 0.731-2.194 1.631-2.194 0.787 0 1.125 0.563 1.125 1.294 0 0.787-0.506 1.912-0.731 2.981-0.225 0.9 0.45 1.631 1.35 1.631 1.575 0 2.813-1.688 2.813-4.106 0-2.138-1.575-3.656-3.769-3.656-2.587 0-4.050 1.913-4.050 3.881 0 0.787 0.281 1.575 0.675 2.081 0.056 0.112 0.056 0.169 0.056 0.281-0.056 0.281-0.225 0.9-0.225 1.012-0.112 0.169-0.225 0.225-0.394 0.113-1.125-0.506-1.8-2.194-1.8-3.488 0-2.813 2.081-5.456 5.963-5.456 3.15 0 5.569 2.25 5.569 5.175 0 3.094-1.969 5.625-4.669 5.625-0.9 0-1.744-0.45-2.081-1.012 0 0-0.45 1.744-0.563 2.137-0.225 0.787-0.731 1.744-1.125 2.363 0.844 0.281 1.744 0.394 2.644 0.394 4.95 0 9-4.050 9-9s-4.050-9-9-9z"></path>
</svg>
