<svg width="16" height="16" viewBox="0 0 16 16" fill="none" xmlns="http://www.w3.org/2000/svg">
<path d="M5.98473 10.1374C7.08397 10.1374 8.06107 9.77099 8.91603 8.91603C9.77099 8.06107 10.1374 7.08397 10.1374 5.98473C10.1374 4.8855 9.77099 3.9084 8.91603 3.05344C8.06107 2.19847 7.08397 1.83206 5.98473 1.83206C4.8855 1.83206 3.9084 2.19847 3.05344 3.05344C2.19847 3.9084 1.83206 4.8855 1.83206 5.98473C1.83206 7.08397 2.19847 8.06107 3.05344 8.91603C3.9084 9.77099 4.76336 10.1374 5.98473 10.1374ZM11.4809 10.1374L16 14.6565L14.6565 16L10.1374 11.4809V10.7481L9.89313 10.5038C8.79389 11.4809 7.45038 11.8473 5.98473 11.8473C4.27481 11.8473 2.9313 11.2366 1.70992 10.1374C0.610687 9.03817 0 7.57252 0 5.98473C0 4.39695 0.610687 2.9313 1.70992 1.70992C2.80916 0.48855 4.27481 0 5.98473 0C7.69466 0 9.03817 0.610687 10.1374 1.70992C11.2366 2.80916 11.8473 4.27481 11.8473 5.98473C11.8473 7.45038 11.3588 8.79389 10.3817 9.89313L10.626 10.1374C10.7481 10.1374 11.4809 10.1374 11.4809 10.1374Z" fill="#1E72C3"/>
</svg>
