<svg width="32" height="32" viewBox="0 0 32 32" fill="none" xmlns="http://www.w3.org/2000/svg">
<rect width="32" height="32" rx="16" fill="#5FB957"/>
<path d="M13.9949 20.5488C14.0722 20.6283 14.1642 20.6915 14.2658 20.7346C14.3673 20.7777 14.4763 20.8 14.5863 20.8C14.6964 20.8 14.8054 20.7777 14.9069 20.7346C15.0084 20.6915 15.1005 20.6283 15.1777 20.5488L22.9797 12.6133C23.1243 12.4544 23.2032 12.2452 23.1999 12.029C23.1966 11.8128 23.1115 11.6061 22.9621 11.4518C22.8127 11.2976 22.6105 11.2076 22.3974 11.2004C22.1844 11.1933 21.9768 11.2695 21.8177 11.4135L14.5759 18.7596L11.0277 15.1602C10.8709 15.0011 10.6581 14.9117 10.4363 14.9117C10.2145 14.9117 10.0018 15.0011 9.84496 15.1602C9.68812 15.3193 9.60001 15.5351 9.60001 15.7601C9.60001 15.8715 9.62164 15.9818 9.66367 16.0848C9.7057 16.1877 9.7673 16.2812 9.84496 16.36L13.9949 20.5488Z" fill="white"/>
</svg>
