<?xml version="1.0" encoding="utf-8"?>
<!-- Generated by IcoMoon.io -->
<!DOCTYPE svg PUBLIC "-//W3C//DTD SVG 1.1//EN" "http://www.w3.org/Graphics/SVG/1.1/DTD/svg11.dtd">
<svg version="1.1" xmlns="http://www.w3.org/2000/svg" xmlns:xlink="http://www.w3.org/1999/xlink" width="18" height="18" viewBox="0 0 18 18">
<path fill="#444" d="M18 3.431c-0.675 0.281-1.35 0.506-2.138 0.563 0.787-0.45 1.35-1.181 1.631-2.025-0.731 0.45-1.519 0.731-2.362 0.9-0.675-0.731-1.631-1.181-2.644-1.181-2.025 0-3.712 1.631-3.712 3.712 0 0.281 0.056 0.563 0.112 0.844-3.094-0.169-5.794-1.631-7.65-3.881-0.338 0.563-0.506 1.181-0.506 1.856 0 1.294 0.675 2.419 1.631 3.094-0.619 0-1.181-0.169-1.688-0.45 0 0 0 0.056 0 0.056 0 1.8 1.294 3.262 2.981 3.6-0.337 0.056-0.619 0.113-0.956 0.113-0.225 0-0.45 0-0.675-0.056 0.45 1.463 1.856 2.531 3.431 2.588-1.238 1.012-2.869 1.575-4.612 1.575-0.281 0-0.619 0-0.9-0.056 1.688 1.013 3.656 1.631 5.737 1.631 6.806 0 10.519-5.625 10.519-10.519 0-0.169 0-0.337 0-0.45 0.675-0.563 1.294-1.181 1.8-1.913z"></path>
</svg>
