<?xml version="1.0" encoding="utf-8"?>
<!-- Generated by IcoMoon.io -->
<!DOCTYPE svg PUBLIC "-//W3C//DTD SVG 1.1//EN" "http://www.w3.org/Graphics/SVG/1.1/DTD/svg11.dtd">
<svg version="1.1" xmlns="http://www.w3.org/2000/svg" xmlns:xlink="http://www.w3.org/1999/xlink" width="18" height="18" viewBox="0 0 18 18">
<path fill="#444" d="M17.831 5.4c0 0-0.169-1.237-0.731-1.8-0.675-0.731-1.462-0.731-1.8-0.787-2.531-0.169-6.3-0.169-6.3-0.169v0c0 0-3.769 0-6.3 0.169-0.337 0.056-1.125 0.056-1.8 0.788-0.563 0.563-0.731 1.8-0.731 1.8s-0.169 1.463-0.169 2.925v1.35c0 1.463 0.169 2.925 0.169 2.925s0.169 1.237 0.731 1.8c0.675 0.731 1.575 0.675 1.969 0.787 1.463 0.112 6.131 0.169 6.131 0.169s3.769 0 6.3-0.169c0.338-0.056 1.125-0.056 1.8-0.787 0.563-0.563 0.731-1.8 0.731-1.8s0.169-1.463 0.169-2.925v-1.35c0-1.462-0.169-2.925-0.169-2.925zM7.144 11.362v-5.062l4.837 2.531-4.838 2.531z"></path>
</svg>
